
<mxGraphModel dx="1464" dy="827" grid="1" gridSize="10" guides="1" tooltips="1" connect="1" arrows="1" fold="1" page="1" pageScale="1" pageWidth="827" pageHeight="1169" math="0" shadow="0">
  <root>
    <mxCell id="0" />
    <mxCell id="1" parent="0" />
    <!-- Clients Entity -->
    <mxCell id="Clients" value="Clientes&#10;ID (PK)&#10;Nome&#10;CPF&#10;Email&#10;Telefone" style="swimlane;fillColor=#D5E8D4;strokeColor=#82B366;" vertex="1" parent="1">
      <mxGeometry x="40" y="40" width="160" height="140" as="geometry" />
    </mxCell>
    <!-- Employees Entity -->
    <mxCell id="Employees" value="Funcionários&#10;ID (PK)&#10;Nome&#10;Email&#10;Telefone" style="swimlane;fillColor=#D5A6BD;strokeColor=#9C4A87;" vertex="1" parent="1">
      <mxGeometry x="300" y="40" width="160" height="120" as="geometry" />
    </mxCell>
    <!-- Requests Entity -->
    <mxCell id="Requests" value="Solicitações&#10;ID (PK)&#10;ClienteID (FK)&#10;FuncionárioID (FK)&#10;Descrição&#10;Urgência&#10;Status&#10;Data de Abertura" style="swimlane;fillColor=#FFF2CC;strokeColor=#D6B656;" vertex="1" parent="1">
      <mxGeometry x="180" y="220" width="180" height="160" as="geometry" />
    </mxCell>
    <!-- Relationships -->
    <mxCell id="rel1" edge="1" source="Clients" target="Requests" style="edgeStyle=orthogonalEdgeStyle;strokeColor=#000000;rounded=1;">
      <mxGeometry relative="1" as="geometry" />
    </mxCell>
    <mxCell id="rel2" edge="1" source="Employees" target="Requests" style="edgeStyle=orthogonalEdgeStyle;strokeColor=#000000;rounded=1;">
      <mxGeometry relative="1" as="geometry" />
    </mxCell>
  </root>
</mxGraphModel>
